<mxfile host="app.diagrams.net" agent="Mozilla/5.0 (Windows NT 10.0; Win64; x64) AppleWebKit/537.36 (KHTML, like Gecko) Chrome/130.0.0.0 Safari/537.36 Edg/130.0.0.0" version="24.8.3">
  <diagram id="C5RBs43oDa-KdzZeNtuy" name="Page-1">
    <mxGraphModel dx="1426" dy="747" grid="1" gridSize="10" guides="1" tooltips="1" connect="1" arrows="1" fold="1" page="1" pageScale="1" pageWidth="827" pageHeight="1169" math="0" shadow="0">
      <root>
        <mxCell id="WIyWlLk6GJQsqaUBKTNV-0" />
        <mxCell id="WIyWlLk6GJQsqaUBKTNV-1" parent="WIyWlLk6GJQsqaUBKTNV-0" />
        <mxCell id="0Oi3Ze9M-lkAw9wlGnJ4-6" style="edgeStyle=none;rounded=0;orthogonalLoop=1;jettySize=auto;html=1;entryX=0.5;entryY=0;entryDx=0;entryDy=0;" edge="1" parent="WIyWlLk6GJQsqaUBKTNV-1" source="WIyWlLk6GJQsqaUBKTNV-3" target="0Oi3Ze9M-lkAw9wlGnJ4-0">
          <mxGeometry relative="1" as="geometry" />
        </mxCell>
        <mxCell id="WIyWlLk6GJQsqaUBKTNV-3" value="Transformar la informaciÃ³n" style="rounded=1;whiteSpace=wrap;html=1;fontSize=12;glass=0;strokeWidth=1;shadow=0;" parent="WIyWlLk6GJQsqaUBKTNV-1" vertex="1">
          <mxGeometry x="265" y="20" width="120" height="40" as="geometry" />
        </mxCell>
        <mxCell id="0Oi3Ze9M-lkAw9wlGnJ4-9" style="edgeStyle=none;rounded=0;orthogonalLoop=1;jettySize=auto;html=1;entryX=0.5;entryY=1;entryDx=0;entryDy=0;" edge="1" parent="WIyWlLk6GJQsqaUBKTNV-1" source="0Oi3Ze9M-lkAw9wlGnJ4-0" target="0Oi3Ze9M-lkAw9wlGnJ4-1">
          <mxGeometry relative="1" as="geometry" />
        </mxCell>
        <mxCell id="0Oi3Ze9M-lkAw9wlGnJ4-12" style="edgeStyle=none;rounded=0;orthogonalLoop=1;jettySize=auto;html=1;entryX=0.5;entryY=0;entryDx=0;entryDy=0;" edge="1" parent="WIyWlLk6GJQsqaUBKTNV-1" source="0Oi3Ze9M-lkAw9wlGnJ4-0" target="0Oi3Ze9M-lkAw9wlGnJ4-10">
          <mxGeometry relative="1" as="geometry" />
        </mxCell>
        <mxCell id="0Oi3Ze9M-lkAw9wlGnJ4-0" value="Crear serie de tiempo" style="rounded=1;whiteSpace=wrap;html=1;" vertex="1" parent="WIyWlLk6GJQsqaUBKTNV-1">
          <mxGeometry x="255" y="120" width="140" height="40" as="geometry" />
        </mxCell>
        <mxCell id="0Oi3Ze9M-lkAw9wlGnJ4-7" style="edgeStyle=none;rounded=0;orthogonalLoop=1;jettySize=auto;html=1;exitX=0.5;exitY=0;exitDx=0;exitDy=0;entryX=1;entryY=0.25;entryDx=0;entryDy=0;" edge="1" parent="WIyWlLk6GJQsqaUBKTNV-1" source="0Oi3Ze9M-lkAw9wlGnJ4-1" target="WIyWlLk6GJQsqaUBKTNV-3">
          <mxGeometry relative="1" as="geometry" />
        </mxCell>
        <mxCell id="0Oi3Ze9M-lkAw9wlGnJ4-1" value="Revisar tipo de dato" style="rounded=1;whiteSpace=wrap;html=1;" vertex="1" parent="WIyWlLk6GJQsqaUBKTNV-1">
          <mxGeometry x="425" y="70" width="120" height="40" as="geometry" />
        </mxCell>
        <mxCell id="0Oi3Ze9M-lkAw9wlGnJ4-3" value="&lt;div&gt;No resulta&lt;/div&gt;" style="text;html=1;align=center;verticalAlign=middle;whiteSpace=wrap;rounded=0;" vertex="1" parent="WIyWlLk6GJQsqaUBKTNV-1">
          <mxGeometry x="425" y="120" width="70" height="30" as="geometry" />
        </mxCell>
        <mxCell id="0Oi3Ze9M-lkAw9wlGnJ4-13" style="edgeStyle=none;rounded=0;orthogonalLoop=1;jettySize=auto;html=1;" edge="1" parent="WIyWlLk6GJQsqaUBKTNV-1" source="0Oi3Ze9M-lkAw9wlGnJ4-10" target="0Oi3Ze9M-lkAw9wlGnJ4-14">
          <mxGeometry relative="1" as="geometry">
            <mxPoint x="325" y="420" as="targetPoint" />
          </mxGeometry>
        </mxCell>
        <mxCell id="0Oi3Ze9M-lkAw9wlGnJ4-10" value="Aplicar modelo SARIMA" style="rounded=1;whiteSpace=wrap;html=1;" vertex="1" parent="WIyWlLk6GJQsqaUBKTNV-1">
          <mxGeometry x="250" y="200" width="150" height="50" as="geometry" />
        </mxCell>
        <mxCell id="0Oi3Ze9M-lkAw9wlGnJ4-19" style="edgeStyle=none;rounded=0;orthogonalLoop=1;jettySize=auto;html=1;" edge="1" parent="WIyWlLk6GJQsqaUBKTNV-1" source="0Oi3Ze9M-lkAw9wlGnJ4-14" target="0Oi3Ze9M-lkAw9wlGnJ4-17">
          <mxGeometry relative="1" as="geometry" />
        </mxCell>
        <mxCell id="0Oi3Ze9M-lkAw9wlGnJ4-20" style="edgeStyle=none;rounded=0;orthogonalLoop=1;jettySize=auto;html=1;entryX=0.5;entryY=0;entryDx=0;entryDy=0;" edge="1" parent="WIyWlLk6GJQsqaUBKTNV-1" source="0Oi3Ze9M-lkAw9wlGnJ4-14" target="0Oi3Ze9M-lkAw9wlGnJ4-15">
          <mxGeometry relative="1" as="geometry" />
        </mxCell>
        <mxCell id="0Oi3Ze9M-lkAw9wlGnJ4-21" style="edgeStyle=none;rounded=0;orthogonalLoop=1;jettySize=auto;html=1;entryX=0.5;entryY=0;entryDx=0;entryDy=0;" edge="1" parent="WIyWlLk6GJQsqaUBKTNV-1" source="0Oi3Ze9M-lkAw9wlGnJ4-14" target="0Oi3Ze9M-lkAw9wlGnJ4-16">
          <mxGeometry relative="1" as="geometry">
            <Array as="points" />
          </mxGeometry>
        </mxCell>
        <mxCell id="0Oi3Ze9M-lkAw9wlGnJ4-14" value="Pruebas" style="rounded=1;whiteSpace=wrap;html=1;" vertex="1" parent="WIyWlLk6GJQsqaUBKTNV-1">
          <mxGeometry x="265" y="330" width="120" height="60" as="geometry" />
        </mxCell>
        <mxCell id="0Oi3Ze9M-lkAw9wlGnJ4-33" style="edgeStyle=none;rounded=0;orthogonalLoop=1;jettySize=auto;html=1;" edge="1" parent="WIyWlLk6GJQsqaUBKTNV-1" source="0Oi3Ze9M-lkAw9wlGnJ4-15" target="0Oi3Ze9M-lkAw9wlGnJ4-22">
          <mxGeometry relative="1" as="geometry" />
        </mxCell>
        <mxCell id="0Oi3Ze9M-lkAw9wlGnJ4-35" style="edgeStyle=none;rounded=0;orthogonalLoop=1;jettySize=auto;html=1;entryX=1;entryY=0.5;entryDx=0;entryDy=0;" edge="1" parent="WIyWlLk6GJQsqaUBKTNV-1" source="0Oi3Ze9M-lkAw9wlGnJ4-15" target="0Oi3Ze9M-lkAw9wlGnJ4-34">
          <mxGeometry relative="1" as="geometry" />
        </mxCell>
        <mxCell id="0Oi3Ze9M-lkAw9wlGnJ4-15" value="Normalidad" style="rounded=1;whiteSpace=wrap;html=1;" vertex="1" parent="WIyWlLk6GJQsqaUBKTNV-1">
          <mxGeometry x="280" y="500" width="90" height="30" as="geometry" />
        </mxCell>
        <mxCell id="0Oi3Ze9M-lkAw9wlGnJ4-32" style="edgeStyle=orthogonalEdgeStyle;rounded=0;orthogonalLoop=1;jettySize=auto;html=1;exitX=1;exitY=0.5;exitDx=0;exitDy=0;entryX=0;entryY=1;entryDx=0;entryDy=0;" edge="1" parent="WIyWlLk6GJQsqaUBKTNV-1" source="0Oi3Ze9M-lkAw9wlGnJ4-16" target="0Oi3Ze9M-lkAw9wlGnJ4-22">
          <mxGeometry relative="1" as="geometry" />
        </mxCell>
        <mxCell id="0Oi3Ze9M-lkAw9wlGnJ4-37" style="edgeStyle=orthogonalEdgeStyle;rounded=0;orthogonalLoop=1;jettySize=auto;html=1;exitX=0;exitY=0.5;exitDx=0;exitDy=0;entryX=1;entryY=1;entryDx=0;entryDy=0;" edge="1" parent="WIyWlLk6GJQsqaUBKTNV-1" source="0Oi3Ze9M-lkAw9wlGnJ4-16" target="0Oi3Ze9M-lkAw9wlGnJ4-34">
          <mxGeometry relative="1" as="geometry" />
        </mxCell>
        <mxCell id="0Oi3Ze9M-lkAw9wlGnJ4-16" value="Independencia" style="rounded=1;whiteSpace=wrap;html=1;" vertex="1" parent="WIyWlLk6GJQsqaUBKTNV-1">
          <mxGeometry x="275" y="554.5" width="100" height="30" as="geometry" />
        </mxCell>
        <mxCell id="0Oi3Ze9M-lkAw9wlGnJ4-30" style="edgeStyle=orthogonalEdgeStyle;rounded=0;orthogonalLoop=1;jettySize=auto;html=1;exitX=1;exitY=0.5;exitDx=0;exitDy=0;entryX=0;entryY=0;entryDx=0;entryDy=0;" edge="1" parent="WIyWlLk6GJQsqaUBKTNV-1" source="0Oi3Ze9M-lkAw9wlGnJ4-17" target="0Oi3Ze9M-lkAw9wlGnJ4-22">
          <mxGeometry relative="1" as="geometry" />
        </mxCell>
        <mxCell id="0Oi3Ze9M-lkAw9wlGnJ4-38" style="edgeStyle=orthogonalEdgeStyle;rounded=0;orthogonalLoop=1;jettySize=auto;html=1;entryX=1;entryY=0;entryDx=0;entryDy=0;" edge="1" parent="WIyWlLk6GJQsqaUBKTNV-1" source="0Oi3Ze9M-lkAw9wlGnJ4-17" target="0Oi3Ze9M-lkAw9wlGnJ4-34">
          <mxGeometry relative="1" as="geometry" />
        </mxCell>
        <mxCell id="0Oi3Ze9M-lkAw9wlGnJ4-17" value="Homoscedasticidad" style="rounded=1;whiteSpace=wrap;html=1;" vertex="1" parent="WIyWlLk6GJQsqaUBKTNV-1">
          <mxGeometry x="263.75" y="430" width="122.5" height="30" as="geometry" />
        </mxCell>
        <mxCell id="0Oi3Ze9M-lkAw9wlGnJ4-41" style="rounded=0;orthogonalLoop=1;jettySize=auto;html=1;entryX=0;entryY=0.5;entryDx=0;entryDy=0;" edge="1" parent="WIyWlLk6GJQsqaUBKTNV-1" source="0Oi3Ze9M-lkAw9wlGnJ4-22" target="0Oi3Ze9M-lkAw9wlGnJ4-40">
          <mxGeometry relative="1" as="geometry" />
        </mxCell>
        <mxCell id="0Oi3Ze9M-lkAw9wlGnJ4-22" value="Realizar pronostico" style="rounded=1;whiteSpace=wrap;html=1;" vertex="1" parent="WIyWlLk6GJQsqaUBKTNV-1">
          <mxGeometry x="540" y="500" width="120" height="40" as="geometry" />
        </mxCell>
        <mxCell id="0Oi3Ze9M-lkAw9wlGnJ4-24" value="p-value&amp;gt;0.05" style="text;html=1;align=center;verticalAlign=middle;whiteSpace=wrap;rounded=0;" vertex="1" parent="WIyWlLk6GJQsqaUBKTNV-1">
          <mxGeometry x="410" y="420" width="80" height="30" as="geometry" />
        </mxCell>
        <mxCell id="0Oi3Ze9M-lkAw9wlGnJ4-25" value="p-value&amp;gt;0.05" style="text;html=1;align=center;verticalAlign=middle;whiteSpace=wrap;rounded=0;" vertex="1" parent="WIyWlLk6GJQsqaUBKTNV-1">
          <mxGeometry x="160" y="490" width="80" height="30" as="geometry" />
        </mxCell>
        <mxCell id="0Oi3Ze9M-lkAw9wlGnJ4-26" value="p-value&amp;gt;0.05" style="text;html=1;align=center;verticalAlign=middle;whiteSpace=wrap;rounded=0;" vertex="1" parent="WIyWlLk6GJQsqaUBKTNV-1">
          <mxGeometry x="410" y="570" width="80" height="30" as="geometry" />
        </mxCell>
        <mxCell id="0Oi3Ze9M-lkAw9wlGnJ4-27" value="p-value&amp;lt;0.05" style="text;html=1;align=center;verticalAlign=middle;whiteSpace=wrap;rounded=0;" vertex="1" parent="WIyWlLk6GJQsqaUBKTNV-1">
          <mxGeometry x="160" y="580" width="80" height="30" as="geometry" />
        </mxCell>
        <mxCell id="0Oi3Ze9M-lkAw9wlGnJ4-28" value="p-value&amp;lt;0.05" style="text;html=1;align=center;verticalAlign=middle;whiteSpace=wrap;rounded=0;" vertex="1" parent="WIyWlLk6GJQsqaUBKTNV-1">
          <mxGeometry x="410" y="490" width="80" height="30" as="geometry" />
        </mxCell>
        <mxCell id="0Oi3Ze9M-lkAw9wlGnJ4-29" value="p-value&amp;lt;0.05" style="text;html=1;align=center;verticalAlign=middle;whiteSpace=wrap;rounded=0;" vertex="1" parent="WIyWlLk6GJQsqaUBKTNV-1">
          <mxGeometry x="160" y="420" width="80" height="30" as="geometry" />
        </mxCell>
        <mxCell id="0Oi3Ze9M-lkAw9wlGnJ4-39" style="edgeStyle=orthogonalEdgeStyle;rounded=0;orthogonalLoop=1;jettySize=auto;html=1;" edge="1" parent="WIyWlLk6GJQsqaUBKTNV-1" source="0Oi3Ze9M-lkAw9wlGnJ4-34" target="0Oi3Ze9M-lkAw9wlGnJ4-10">
          <mxGeometry relative="1" as="geometry">
            <Array as="points">
              <mxPoint x="80" y="220" />
            </Array>
          </mxGeometry>
        </mxCell>
        <mxCell id="0Oi3Ze9M-lkAw9wlGnJ4-34" value="Ajustar modelo" style="rounded=1;whiteSpace=wrap;html=1;" vertex="1" parent="WIyWlLk6GJQsqaUBKTNV-1">
          <mxGeometry x="20" y="497.5" width="110" height="35" as="geometry" />
        </mxCell>
        <mxCell id="0Oi3Ze9M-lkAw9wlGnJ4-44" style="edgeStyle=orthogonalEdgeStyle;rounded=0;orthogonalLoop=1;jettySize=auto;html=1;entryX=0.5;entryY=1;entryDx=0;entryDy=0;" edge="1" parent="WIyWlLk6GJQsqaUBKTNV-1" source="0Oi3Ze9M-lkAw9wlGnJ4-40" target="0Oi3Ze9M-lkAw9wlGnJ4-42">
          <mxGeometry relative="1" as="geometry" />
        </mxCell>
        <mxCell id="0Oi3Ze9M-lkAw9wlGnJ4-40" value="Transformar seria a data frame" style="rounded=0;whiteSpace=wrap;html=1;" vertex="1" parent="WIyWlLk6GJQsqaUBKTNV-1">
          <mxGeometry x="700" y="497.5" width="110" height="40" as="geometry" />
        </mxCell>
        <mxCell id="0Oi3Ze9M-lkAw9wlGnJ4-43" value="" style="edgeStyle=orthogonalEdgeStyle;rounded=0;orthogonalLoop=1;jettySize=auto;html=1;" edge="1" parent="WIyWlLk6GJQsqaUBKTNV-1" source="0Oi3Ze9M-lkAw9wlGnJ4-42" target="0Oi3Ze9M-lkAw9wlGnJ4-40">
          <mxGeometry relative="1" as="geometry" />
        </mxCell>
        <mxCell id="0Oi3Ze9M-lkAw9wlGnJ4-47" style="edgeStyle=orthogonalEdgeStyle;rounded=0;orthogonalLoop=1;jettySize=auto;html=1;entryX=0.5;entryY=1;entryDx=0;entryDy=0;" edge="1" parent="WIyWlLk6GJQsqaUBKTNV-1" source="0Oi3Ze9M-lkAw9wlGnJ4-42" target="0Oi3Ze9M-lkAw9wlGnJ4-45">
          <mxGeometry relative="1" as="geometry" />
        </mxCell>
        <mxCell id="0Oi3Ze9M-lkAw9wlGnJ4-42" value="Unir pronÃ³sticos" style="rounded=1;whiteSpace=wrap;html=1;" vertex="1" parent="WIyWlLk6GJQsqaUBKTNV-1">
          <mxGeometry x="700" y="415" width="110" height="40" as="geometry" />
        </mxCell>
        <mxCell id="0Oi3Ze9M-lkAw9wlGnJ4-49" style="edgeStyle=orthogonalEdgeStyle;rounded=0;orthogonalLoop=1;jettySize=auto;html=1;entryX=1;entryY=0.5;entryDx=0;entryDy=0;" edge="1" parent="WIyWlLk6GJQsqaUBKTNV-1" source="0Oi3Ze9M-lkAw9wlGnJ4-45" target="0Oi3Ze9M-lkAw9wlGnJ4-48">
          <mxGeometry relative="1" as="geometry" />
        </mxCell>
        <mxCell id="0Oi3Ze9M-lkAw9wlGnJ4-45" value="Ingresos proyectados" style="whiteSpace=wrap;html=1;aspect=fixed;" vertex="1" parent="WIyWlLk6GJQsqaUBKTNV-1">
          <mxGeometry x="720" y="290" width="70" height="70" as="geometry" />
        </mxCell>
        <mxCell id="0Oi3Ze9M-lkAw9wlGnJ4-50" style="edgeStyle=none;rounded=0;orthogonalLoop=1;jettySize=auto;html=1;entryX=1;entryY=0.25;entryDx=0;entryDy=0;" edge="1" parent="WIyWlLk6GJQsqaUBKTNV-1" source="0Oi3Ze9M-lkAw9wlGnJ4-48" target="0Oi3Ze9M-lkAw9wlGnJ4-14">
          <mxGeometry relative="1" as="geometry" />
        </mxCell>
        <mxCell id="0Oi3Ze9M-lkAw9wlGnJ4-48" value="SupervisiÃ³n mensual" style="rounded=1;whiteSpace=wrap;html=1;" vertex="1" parent="WIyWlLk6GJQsqaUBKTNV-1">
          <mxGeometry x="520" y="295" width="120" height="60" as="geometry" />
        </mxCell>
      </root>
    </mxGraphModel>
  </diagram>
</mxfile>
